<?xml version="1.0" encoding="utf-8"?>
<svg xmlns="http://www.w3.org/2000/svg" viewBox="0 0 512 512" width="512" height="512">
  <defs>
    <linearGradient id="bg" x1="0" y1="0" x2="1" y2="1">
      <stop offset="0" stop-color="#0e3b43"/>
      <stop offset="1" stop-color="#07191d"/>
    </linearGradient>
  </defs>
  <rect width="512" height="512" rx="96" ry="96" fill="url(#bg)"/>
  <!-- Anillos de espacio aéreo / radar -->
  <g fill="none" stroke="#1fc3d6" stroke-opacity="0.55">
    <circle cx="256" cy="232" r="150" stroke-width="6"/>
    <circle cx="256" cy="232" r="108" stroke-width="6" stroke-opacity="0.35"/>
  </g>
  <!-- Cruz de marcas de rumbo -->
  <g stroke="#1fc3d6" stroke-opacity="0.5" stroke-width="6" stroke-linecap="round">
    <line x1="256" y1="62" x2="256" y2="92"/>
    <line x1="256" y1="372" x2="256" y2="402"/>
    <line x1="86" y1="232" x2="116" y2="232"/>
    <line x1="396" y1="232" x2="426" y2="232"/>
  </g>
  <!-- Pin / NOTAM -->
  <path fill="#eef6f7" d="M256 120c-57 0-103 46-103 103 0 74 89 168 99 178a5.6 5.6 0 0 0 8 0c10-10 99-104 99-178 0-57-46-103-103-103z"/>
  <circle cx="256" cy="223" r="52" fill="#0c343b"/>
  <circle cx="256" cy="223" r="26" fill="#f5a623"/>
</svg>
